<svg width="246" height="66.42832260426161" viewBox="0 0 350 94.51184110362425" class="looka-1j8o68f">
    <defs id="SvgjsDefs1273"></defs>
    <g id="SvgjsG1274" featurekey="X3o6dM-0" transform="matrix(4.437119829955801,0,0,4.437119829955801,-1.1536550805671053,-28.841297936765198)" fill="#111111">
        <path d="M6.22 7.5 q1.8 -0.22 3.37 0.32 t2.73 1.62 t1.83 2.59 t0.67 3.23 q0 1.38 -0.48 2.61 t-1.4 2.16 t-2.25 1.47 t-3.03 0.54 q-1.62 0 -2.98 -0.53 t-2.34 -1.43 t-1.53 -2.1 t-0.55 -2.54 q0 -0.64 0.19 -1.44 t0.54 -1.64 t0.87 -1.65 t1.19 -1.48 t1.46 -1.13 t1.71 -0.6 z M13.1 15.42 q0 -1.44 -0.5 -2.69 t-1.4 -2.17 t-2.13 -1.45 t-2.69 -0.53 q-0.78 0 -1.65 0.63 t-1.59 1.62 t-1.19 2.19 t-0.47 2.34 q0 1.24 0.51 2.21 t1.35 1.63 t1.92 1 t2.22 0.34 q1.26 0 2.3 -0.37 t1.77 -1.05 t1.14 -1.62 t0.41 -2.08 z M16.04 14.2 q0 -0.38 0.26 -0.62 t0.56 -0.33 t0.53 -0.02 t0.19 0.33 q-0.04 0.22 -0.07 0.58 t-0.07 0.82 q0.2 -0.2 0.51 -0.36 t0.67 -0.14 q0.62 0.04 0.97 0.46 t0.49 1 t0.06 1.24 t-0.34 1.22 t-0.67 0.91 t-0.95 0.31 q-0.36 0 -0.72 -0.24 l-0.12 -0.08 t-0.12 -0.1 q-0.04 0.78 -0.05 1.45 t-0.01 1.07 q0 0.22 -0.23 0.34 t-0.49 0.13 t-0.48 -0.1 t-0.18 -0.35 q0.04 -0.4 0.08 -1.06 t0.07 -1.44 t0.05 -1.6 t0.03 -1.52 t0.02 -1.21 t0.01 -0.69 z M17.64 15.879999999999999 q-0.18 0.42 -0.25 0.9 t-0.03 0.9 t0.2 0.72 t0.4 0.34 q0.2 0.04 0.37 -0.2 t0.28 -0.61 t0.17 -0.82 t0.03 -0.85 t-0.14 -0.67 t-0.33 -0.29 t-0.4 0.16 t-0.3 0.42 z M23.96 16.5 q-0.16 0.22 -0.4 0.36 t-0.52 0.23 t-0.57 0.13 t-0.51 0.06 q-0.06 0.42 -0.07 0.82 t0.04 0.72 t0.16 0.54 t0.31 0.28 q0.26 0.08 0.56 -0.09 t0.58 -0.47 t0.54 -0.7 t0.46 -0.77 t0.34 -0.68 t0.18 -0.45 q0.06 -0.18 0.19 -0.24 t0.25 -0.04 t0.2 0.13 t0.04 0.29 q-0.04 0.12 -0.14 0.47 t-0.29 0.79 t-0.46 0.91 t-0.65 0.86 t-0.87 0.65 t-1.09 0.26 q-0.72 0 -1.12 -0.5 t-0.54 -1.26 t-0.05 -1.63 t0.36 -1.63 t0.68 -1.26 t0.91 -0.5 q0.48 0 0.85 0.33 t0.57 0.77 t0.23 0.9 t-0.17 0.72 z M22.72 14.719999999999999 q-0.14 0.06 -0.3 0.51 t-0.3 1.09 q0.22 0 0.44 -0.05 t0.32 -0.21 q0.08 -0.12 0.1 -0.35 t-0.01 -0.47 t-0.1 -0.4 t-0.15 -0.12 z M25.14 15.52 q0.06 -0.4 0.34 -0.6 t0.57 -0.22 t0.51 0.12 t0.18 0.44 q-0.04 0.28 -0.11 0.63 t-0.13 0.7 t-0.09 0.66 t-0.01 0.51 q0.16 -0.54 0.37 -0.97 t0.43 -0.73 q0.16 -0.2 0.44 -0.31 t0.54 -0.1 t0.42 0.15 t0.06 0.4 q-0.06 0.18 -0.11 0.56 t-0.05 0.77 t0.04 0.68 t0.14 0.29 q0.12 0 0.32 -0.22 t0.4 -0.53 t0.37 -0.66 t0.25 -0.61 q0.04 -0.18 0.17 -0.24 t0.25 -0.04 t0.2 0.13 t0.04 0.29 q-0.06 0.28 -0.28 0.76 t-0.52 0.94 t-0.66 0.81 t-0.7 0.35 q-0.58 0 -0.83 -0.31 t-0.33 -0.7 t-0.06 -0.76 t-0.02 -0.47 q-0.1 0.04 -0.21 0.28 t-0.21 0.56 t-0.18 0.67 t-0.1 0.59 q-0.04 0.26 -0.27 0.39 t-0.5 0.13 t-0.49 -0.14 t-0.2 -0.44 q0.02 -0.34 0 -0.82 t-0.04 -1.01 t-0.02 -1.03 t0.08 -0.9 z M43.24 18.08 q0 -0.24 -0.01 -0.55 t-0.03 -0.67 q-2.4 0.1 -4.78 0.16 t-4.8 0.1 q-0.1 0.74 -0.15 1.49 t-0.11 1.49 q-0.04 0.54 -0.22 0.54 q-0.12 0 -0.26 -0.15 t-0.26 -0.36 t-0.22 -0.42 t-0.14 -0.33 q-0.14 -0.4 -0.23 -0.82 t-0.09 -0.86 l0 -0.28 t0.04 -0.3 l-0.7 0 q-0.1 0 -0.27 -0.02 t-0.34 -0.07 t-0.3 -0.12 t-0.13 -0.17 t0.12 -0.18 t0.3 -0.13 t0.4 -0.08 t0.4 -0.03 l0.7 0 q0.16 -0.78 0.43 -1.75 t0.68 -1.95 t0.95 -1.9 t1.24 -1.64 t1.56 -1.15 t1.9 -0.43 q1 0 1.79 0.38 t1.37 1.02 t0.98 1.47 t0.66 1.73 t0.38 1.82 t0.14 1.72 q0.34 0.1 0.63 0.29 t0.29 0.53 q0 0.14 -0.1 0.22 t-0.25 0.12 t-0.32 0.05 t-0.31 0.01 q-0.04 0.42 -0.12 1.05 t-0.21 1.22 t-0.3 1.01 t-0.37 0.42 q-0.08 0 -0.08 -0.22 q0 -0.58 0.07 -1.13 t0.07 -1.13 z M36.52 10.16 q-1.3 1.34 -1.92 2.87 t-0.88 3.17 q1.16 -0.1 2.33 -0.25 t2.34 -0.27 t2.34 -0.19 t2.35 -0.01 q-0.12 -1.08 -0.38 -2.23 t-0.74 -2.1 t-1.21 -1.57 t-1.77 -0.62 q-0.68 0 -1.31 0.33 t-1.15 0.87 z M57.48 20.18 q1.9 1.24 3.12 1.78 t1.98 0.66 t1.18 -0.05 t0.7 -0.35 q0.52 -0.32 0.71 -0.15 t-0.33 0.69 q-0.26 0.26 -0.68 0.51 t-1.01 0.39 t-1.34 0.13 t-1.66 -0.28 t-1.99 -0.84 t-2.32 -1.55 q-0.52 0.18 -1.09 0.29 t-1.21 0.11 q-1.02 0 -1.93 -0.28 t-1.67 -0.77 t-1.36 -1.18 t-1 -1.53 q-0.14 0.06 -0.31 0.22 t-0.33 0.28 t-0.33 0.12 t-0.31 -0.26 q-0.16 -0.22 -0.12 -0.44 t0.21 -0.4 t0.4 -0.32 t0.43 -0.22 q-0.14 -0.46 -0.19 -0.9 t-0.05 -0.92 q0 -0.7 0.18 -1.58 t0.53 -1.8 t0.86 -1.78 t1.15 -1.54 t1.42 -1.09 t1.66 -0.41 q1.68 0 3 0.65 t2.23 1.73 t1.38 2.5 t0.47 2.96 q0 1.6 -0.59 3.1 t-1.79 2.52 z M58.18 14.7 q0 -1.3 -0.39 -2.5 t-1.13 -2.14 t-1.81 -1.54 t-2.43 -0.72 q-1 0.24 -1.78 0.99 t-1.31 1.74 t-0.81 2.1 t-0.28 2.07 q0 0.88 0.28 1.78 q1.08 0 2.03 0.28 t1.83 0.71 t1.71 0.94 t1.69 0.97 q1.1 -0.58 1.75 -1.76 t0.65 -2.92 z M49 17.62 q0.8 1.28 2.09 1.88 t2.79 0.46 q-0.7 -0.46 -1.33 -0.87 t-1.21 -0.72 t-1.16 -0.5 t-1.18 -0.25 z M77.96 17.94 q0.1 0.52 0.2 1.08 t0.1 1.02 q0 0.24 -0.08 0.5 t-0.21 0.47 t-0.3 0.35 t-0.37 0.14 q-0.26 0 -0.47 -0.33 t-0.35 -0.87 t-0.24 -1.21 t-0.16 -1.35 t-0.08 -1.29 t-0.02 -1.03 q0 -0.94 0.14 -2.03 t0.16 -2.05 q-0.4 0.52 -0.87 1.45 t-1.02 2 t-1.15 2.18 t-1.24 2.02 t-1.33 1.48 t-1.39 0.57 q-0.38 0 -0.7 -0.16 t-0.6 -0.4 t-0.52 -0.54 t-0.44 -0.58 q-0.72 -0.98 -1.34 -2.07 t-1.1 -2.15 q-0.06 0.82 -0.04 1.22 t0.02 0.7 q0 0.92 -0.13 1.84 t-0.59 1.74 q-0.32 0.58 -0.98 0.58 q-0.1 0 -0.25 -0.02 t-0.28 -0.08 t-0.23 -0.15 t-0.1 -0.23 q0.04 -0.38 0.13 -0.72 t0.19 -0.66 q0.2 -0.6 0.37 -1.29 t0.31 -1.41 t0.25 -1.45 t0.17 -1.41 q0 -0.14 0.01 -0.28 t0.09 -0.28 q-0.18 -0.58 -0.59 -1.22 t-0.84 -1.21 t-0.76 -1 t-0.35 -0.57 q-0.02 -0.08 0.05 -0.09 t0.16 0 t0.18 0.05 t0.11 0.04 q0.8 0.52 1.43 1.25 t1.21 1.66 t1.16 2.06 t1.3 2.45 l0 -0.02 q0.2 0.36 0.47 0.84 t0.59 0.92 t0.66 0.74 t0.7 0.3 q0.36 -0.02 0.85 -0.61 t1.03 -1.48 t1.09 -1.94 t1.05 -1.99 q0.22 -0.44 0.6 -1.12 t0.86 -1.45 t1.03 -1.54 t1.13 -1.4 t1.16 -1.02 t1.1 -0.39 q0.1 0 0.17 0.06 t0.07 0.2 q0 0.22 -0.11 0.45 t-0.23 0.45 q-0.28 0.44 -0.61 0.98 t-0.99 1.4 q0.04 1.1 0.11 2.23 t0.16 2.18 t0.21 1.95 t0.28 1.54 z"></path>
    </g>
    <g id="SvgjsG1275" featurekey="RFbU7s-0" transform="matrix(0.5180580412195106,0,0,0.5180580412195106,34.533747466467254,83.9952632621151)" fill="#111111">
        <path d="M8.14 5.800000000000001 c3.84 0 7.24 2.96 7.24 7.2 s-3.4 7.2 -7.24 7.2 s-7.24 -2.96 -7.24 -7.2 s3.4 -7.2 7.24 -7.2 z M8.14 17.740000000000002 c2.44 0 4.5 -1.98 4.5 -4.74 s-2.06 -4.74 -4.5 -4.74 c-2.46 0 -4.52 1.98 -4.52 4.74 s2.06 4.74 4.52 4.74 z M36.14 6 c3.14 0 5.12 1.92 5.12 4.7 s-1.98 4.54 -5.12 4.54 l-2.2 0 l0 4.76 l-2.62 0 l0 -14 l4.82 0 z M36 12.98 c1.58 0 2.64 -0.68 2.64 -2.28 c0 -1.58 -1.06 -2.28 -2.64 -2.28 l-2.06 0 l0 4.56 l2.06 0 z M59.62 17.58 l6.1 0 l0 2.42 l-6.5 0 l-2.22 0 l0 -14 l2.62 0 l5.92 0 l0 2.42 l-5.92 0 l0 3.36 l4.5 0 l0 2.36 l-4.5 0 l0 3.44 z M90.96 6 l2.62 0 l0 14 l-2 0 l-7.3 -9.22 l0 9.22 l-2.62 0 l0 -14 l2.02 0 l7.28 9.24 l0 -9.24 z M140.87999999999997 20 l-1.16 -2.7 l-6.92 0 l-1.16 2.7 l-2.78 0 l6.24 -14 l2.34 0 l6.22 14 l-2.78 0 z M133.71999999999997 15.16 l5.08 0 l-2.54 -5.92 z M161.71999999999997 6 l0 14 l-2.62 0 l0 -14 l2.62 0 z M188.79999999999998 20 l-2.78 0 l-3.12 -4.76 l-0.12 0 l-2.2 0 l0 4.76 l-2.62 0 l0 -14 l4.82 0 c3.14 0 5.12 1.92 5.12 4.7 c0 1.94 -0.96 3.38 -2.6 4.08 z M180.57999999999998 8.42 l0 4.56 l2.06 0 c1.58 0 2.64 -0.68 2.64 -2.28 c0 -1.58 -1.06 -2.28 -2.64 -2.28 l-2.06 0 z M238.45999999999998 13 c0 2.02 -0.78 3.76 -2 5.02 l1.52 1.98 l-3.08 0 l-0.42 -0.56 c-1 0.5 -2.1 0.76 -3.26 0.76 c-3.84 0 -7.24 -2.96 -7.24 -7.2 s3.4 -7.2 7.24 -7.2 s7.24 2.96 7.24 7.2 z M231.21999999999997 17.740000000000002 c0.6 0 1.16 -0.12 1.7 -0.34 l-2.78 -3.62 l3.08 0 l1.6 2.1 c0.56 -0.78 0.9 -1.76 0.9 -2.88 c0 -2.76 -2.06 -4.74 -4.5 -4.74 c-2.46 0 -4.52 1.98 -4.52 4.74 s2.06 4.74 4.52 4.74 z M262.44 6 l2.62 0 l0 8.92 c0 3.4 -2.42 5.38 -5.32 5.38 c-2.92 0 -5.34 -1.98 -5.34 -5.38 l0 -8.92 l2.62 0 l0 8.92 c0 2.2 1.4 2.92 2.72 2.92 s2.7 -0.72 2.7 -2.92 l0 -8.92 z M292.52 20 l-1.16 -2.7 l-6.92 0 l-1.16 2.7 l-2.78 0 l6.24 -14 l2.34 0 l6.22 14 l-2.78 0 z M285.35999999999996 15.16 l5.08 0 l-2.54 -5.92 z M313.35999999999996 17.58 l5.68 0 l0 2.42 l-8.3 0 l0 -14 l2.62 0 l0 11.58 z M337.49999999999994 6 l0 14 l-2.62 0 l0 -14 l2.62 0 z M363.14 6 l0 2.42 l-3.6 0 l0 11.58 l-2.62 0 l0 -11.58 l-3.58 0 l0 -2.42 l9.8 0 z M391.59999999999997 6 l-5.3 7.92 l0 6.08 l-2.62 0 l0 -6.08 l-5.3 -7.92 l2.96 0 l3.64 5.54 l3.64 -5.54 l2.98 0 z M431.87999999999994 6 c4 0 7.08 3.1 7.08 6.94 c0 3.96 -3.08 7.06 -7.08 7.06 l-4.8 0 l0 -14 l4.8 0 z M431.85999999999996 17.52 c2.84 0 4.44 -2.06 4.44 -4.58 c0 -2.4 -1.6 -4.46 -4.44 -4.46 l-2.16 0 l0 9.04 l2.16 0 z M466.0199999999999 20 l-1.16 -2.7 l-6.92 0 l-1.16 2.7 l-2.78 0 l6.24 -14 l2.34 0 l6.22 14 l-2.78 0 z M458.8599999999999 15.16 l5.08 0 l-2.54 -5.92 z M493.63999999999993 6 l0 2.42 l-3.6 0 l0 11.58 l-2.62 0 l0 -11.58 l-3.58 0 l0 -2.42 l9.8 0 z M520.6999999999999 20 l-1.16 -2.7 l-6.92 0 l-1.16 2.7 l-2.78 0 l6.24 -14 l2.34 0 l6.22 14 l-2.78 0 z M513.54 15.16 l5.08 0 l-2.54 -5.92 z M539.8999999999999 20.1 c-0.84 0 -1.48 -0.64 -1.48 -1.48 s0.64 -1.48 1.48 -1.48 s1.48 0.64 1.48 1.48 s-0.64 1.48 -1.48 1.48 z"></path>
    </g>
</svg>